<svg width="50" height="51" viewBox="0 0 50 51" fill="none" xmlns="http://www.w3.org/2000/svg">
<path d="M44.6428 0.125H5.35715C2.39955 0.125 0 2.52454 0 5.48214V44.7679C0 47.7255 2.39955 50.125 5.35715 50.125H44.6428C47.6004 50.125 50 47.7255 50 44.7679V5.48214C50 2.52454 47.6004 0.125 44.6428 0.125ZM39.1852 17.8482C39.2076 18.1607 39.2076 18.4844 39.2076 18.7969C39.2076 28.4732 31.8415 39.6228 18.3817 39.6228C14.2299 39.6228 10.3794 38.4174 7.14285 36.3415C7.73435 36.4085 8.30355 36.4308 8.90625 36.4308C12.3326 36.4308 15.4799 35.2701 17.9911 33.3058C14.7768 33.2388 12.0759 31.1295 11.1496 28.2277C12.2768 28.3951 13.2924 28.3951 14.4531 28.0937C11.1049 27.4129 8.59375 24.4665 8.59375 20.9063V20.8169C9.56475 21.3639 10.7031 21.6987 11.8973 21.7433C10.8933 21.0755 10.0703 20.1695 9.50165 19.1062C8.933 18.0429 8.6364 16.8553 8.6384 15.6496C8.6384 14.288 8.99555 13.038 9.6317 11.9553C13.2366 16.3973 18.6496 19.2991 24.721 19.6116C23.6831 14.6451 27.3995 10.6161 31.8638 10.6161C33.9732 10.6161 35.8706 11.4977 37.2098 12.9263C38.8616 12.6139 40.4464 12 41.8527 11.1629C41.3058 12.8594 40.1562 14.288 38.6384 15.192C40.1116 15.0357 41.5402 14.6228 42.8572 14.0536C41.8638 15.5156 40.6138 16.8103 39.1852 17.8482Z" fill="#F0F7F4"/>
</svg>
