<svg width="50" height="50" viewBox="0 0 50 50" fill="none" xmlns="http://www.w3.org/2000/svg">
<path d="M25.0112 12.6467C17.913 12.6467 12.1875 18.1575 12.1875 24.9895C12.1875 31.8215 17.913 37.3323 25.0112 37.3323C32.1095 37.3323 37.8349 31.8215 37.8349 24.9895C37.8349 18.1575 32.1095 12.6467 25.0112 12.6467ZM25.0112 33.0139C20.4242 33.0139 16.6742 29.4153 16.6742 24.9895C16.6742 20.5637 20.413 16.9651 25.0112 16.9651C29.6094 16.9651 33.3483 20.5637 33.3483 24.9895C33.3483 29.4153 29.5983 33.0139 25.0112 33.0139ZM41.3505 12.1418C41.3505 13.7424 40.0112 15.0208 38.3595 15.0208C36.6965 15.0208 35.3684 13.7317 35.3684 12.1418C35.3684 10.552 36.7077 9.26293 38.3595 9.26293C40.0112 9.26293 41.3505 10.552 41.3505 12.1418ZM49.8438 15.0637C49.6541 11.2073 48.7389 7.79124 45.8036 4.97678C42.8796 2.16235 39.3304 1.28149 35.3237 1.08814C31.1943 0.862548 18.817 0.862548 14.6875 1.08814C10.692 1.27075 7.14295 2.15161 4.20766 4.96605C1.27239 7.78051 0.368373 11.1965 0.16748 15.053C-0.0668945 19.0276 -0.0668945 30.9407 0.16748 34.9153C0.357212 38.7717 1.27239 42.1877 4.20766 45.0022C7.14295 47.8167 10.6808 48.6975 14.6875 48.8909C18.817 49.1165 31.1943 49.1165 35.3237 48.8909C39.3304 48.7083 42.8796 47.8274 45.8036 45.0022C48.7277 42.1877 49.6429 38.7717 49.8438 34.9153C50.078 30.9407 50.078 19.0384 49.8438 15.0637ZM44.509 39.1799C43.6385 41.2854 41.9532 42.9075 39.7546 43.7561C36.4622 45.0129 28.6496 44.7229 25.0112 44.7229C21.3728 44.7229 13.5492 45.0022 10.268 43.7561C8.08045 42.9182 6.39515 41.2961 5.51345 39.1799C4.20766 36.011 4.509 28.4915 4.509 24.9895C4.509 21.4876 4.21882 13.9573 5.51345 10.7991C6.384 8.69362 8.06925 7.07151 10.268 6.22291C13.5604 4.96605 21.3728 5.25612 25.0112 5.25612C28.6496 5.25612 36.4733 4.97678 39.7546 6.22291C41.9421 7.06078 43.6273 8.68284 44.509 10.7991C45.8148 13.968 45.5135 21.4876 45.5135 24.9895C45.5135 28.4915 45.8148 36.0217 44.509 39.1799Z" fill="#F0F7F4"/>
</svg>
