<svg width="200" height="77" viewBox="0 0 200 77" fill="none" xmlns="http://www.w3.org/2000/svg">
<path d="M8.66138 71.098C7.75604 71.098 6.93004 70.888 6.18338 70.468C5.43671 70.0387 4.84404 69.446 4.40538 68.69C3.97604 67.9247 3.76138 67.066 3.76138 66.114C3.76138 65.162 3.97604 64.308 4.40538 63.552C4.84404 62.7867 5.43671 62.194 6.18338 61.774C6.93004 61.3447 7.75604 61.13 8.66138 61.13C9.57604 61.13 10.4067 61.3447 11.1534 61.774C11.9 62.194 12.488 62.782 12.9174 63.538C13.3467 64.294 13.5614 65.1527 13.5614 66.114C13.5614 67.0753 13.3467 67.934 12.9174 68.69C12.488 69.446 11.9 70.0387 11.1534 70.468C10.4067 70.888 9.57604 71.098 8.66138 71.098ZM8.66138 69.992C9.34271 69.992 9.95405 69.8333 10.4954 69.516C11.046 69.1987 11.4754 68.746 11.7834 68.158C12.1007 67.57 12.2594 66.8887 12.2594 66.114C12.2594 65.33 12.1007 64.6487 11.7834 64.07C11.4754 63.482 11.0507 63.0293 10.5094 62.712C9.96804 62.3947 9.35204 62.236 8.66138 62.236C7.97071 62.236 7.35471 62.3947 6.81338 62.712C6.27204 63.0293 5.84271 63.482 5.52538 64.07C5.21738 64.6487 5.06338 65.33 5.06338 66.114C5.06338 66.8887 5.21738 67.57 5.52538 68.158C5.84271 68.746 6.27204 69.1987 6.81338 69.516C7.36404 69.8333 7.98004 69.992 8.66138 69.992ZM26.1437 68.83H21.8877L21.1037 71H19.7597L23.2877 61.298H24.7577L28.2717 71H26.9277L26.1437 68.83ZM25.7797 67.794L24.0157 62.866L22.2517 67.794H25.7797ZM31.7833 64.742C32.0353 64.3033 32.4086 63.9393 32.9033 63.65C33.4073 63.3513 33.9906 63.202 34.6533 63.202C35.3346 63.202 35.9506 63.3653 36.5013 63.692C37.0613 64.0187 37.4999 64.4807 37.8173 65.078C38.1346 65.666 38.2933 66.352 38.2933 67.136C38.2933 67.9107 38.1346 68.6013 37.8173 69.208C37.4999 69.8147 37.0613 70.286 36.5013 70.622C35.9506 70.958 35.3346 71.126 34.6533 71.126C33.9999 71.126 33.4213 70.9813 32.9173 70.692C32.4226 70.3933 32.0446 70.0247 31.7833 69.586V74.64H30.5093V63.328H31.7833V64.742ZM36.9913 67.136C36.9913 66.5573 36.8746 66.0533 36.6413 65.624C36.4079 65.1947 36.0906 64.868 35.6893 64.644C35.2973 64.42 34.8633 64.308 34.3873 64.308C33.9206 64.308 33.4866 64.4247 33.0853 64.658C32.6933 64.882 32.3759 65.2133 32.1333 65.652C31.8999 66.0813 31.7833 66.5807 31.7833 67.15C31.7833 67.7287 31.8999 68.2373 32.1333 68.676C32.3759 69.1053 32.6933 69.4367 33.0853 69.67C33.4866 69.894 33.9206 70.006 34.3873 70.006C34.8633 70.006 35.2973 69.894 35.6893 69.67C36.0906 69.4367 36.4079 69.1053 36.6413 68.676C36.8746 68.2373 36.9913 67.724 36.9913 67.136ZM41.9442 64.742C42.1962 64.3033 42.5695 63.9393 43.0642 63.65C43.5682 63.3513 44.1515 63.202 44.8142 63.202C45.4955 63.202 46.1115 63.3653 46.6622 63.692C47.2222 64.0187 47.6609 64.4807 47.9782 65.078C48.2955 65.666 48.4542 66.352 48.4542 67.136C48.4542 67.9107 48.2955 68.6013 47.9782 69.208C47.6609 69.8147 47.2222 70.286 46.6622 70.622C46.1115 70.958 45.4955 71.126 44.8142 71.126C44.1609 71.126 43.5822 70.9813 43.0782 70.692C42.5835 70.3933 42.2055 70.0247 41.9442 69.586V74.64H40.6702V63.328H41.9442V64.742ZM47.1522 67.136C47.1522 66.5573 47.0355 66.0533 46.8022 65.624C46.5689 65.1947 46.2515 64.868 45.8502 64.644C45.4582 64.42 45.0242 64.308 44.5482 64.308C44.0815 64.308 43.6475 64.4247 43.2462 64.658C42.8542 64.882 42.5369 65.2133 42.2942 65.652C42.0609 66.0813 41.9442 66.5807 41.9442 67.15C41.9442 67.7287 42.0609 68.2373 42.2942 68.676C42.5369 69.1053 42.8542 69.4367 43.2462 69.67C43.6475 69.894 44.0815 70.006 44.5482 70.006C45.0242 70.006 45.4582 69.894 45.8502 69.67C46.2515 69.4367 46.5689 69.1053 46.8022 68.676C47.0355 68.2373 47.1522 67.724 47.1522 67.136ZM54.7876 67.136C54.7876 66.352 54.9462 65.666 55.2636 65.078C55.5809 64.4807 56.0149 64.0187 56.5656 63.692C57.1256 63.3653 57.7509 63.202 58.4416 63.202C59.0389 63.202 59.5942 63.342 60.1076 63.622C60.6209 63.8927 61.0129 64.252 61.2836 64.7V60.64H62.5716V71H61.2836V69.558C61.0316 70.0153 60.6582 70.3933 60.1636 70.692C59.6689 70.9813 59.0902 71.126 58.4276 71.126C57.7462 71.126 57.1256 70.958 56.5656 70.622C56.0149 70.286 55.5809 69.8147 55.2636 69.208C54.9462 68.6013 54.7876 67.9107 54.7876 67.136ZM61.2836 67.15C61.2836 66.5713 61.1669 66.0673 60.9336 65.638C60.7002 65.2087 60.3829 64.882 59.9816 64.658C59.5896 64.4247 59.1556 64.308 58.6796 64.308C58.2036 64.308 57.7696 64.42 57.3776 64.644C56.9856 64.868 56.6729 65.1947 56.4396 65.624C56.2062 66.0533 56.0896 66.5573 56.0896 67.136C56.0896 67.724 56.2062 68.2373 56.4396 68.676C56.6729 69.1053 56.9856 69.4367 57.3776 69.67C57.7696 69.894 58.2036 70.006 58.6796 70.006C59.1556 70.006 59.5896 69.894 59.9816 69.67C60.3829 69.4367 60.7002 69.1053 60.9336 68.676C61.1669 68.2373 61.2836 67.7287 61.2836 67.15ZM72.4245 66.87C72.4245 67.1127 72.4105 67.3693 72.3825 67.64H66.2505C66.2972 68.396 66.5538 68.9887 67.0205 69.418C67.4965 69.838 68.0705 70.048 68.7425 70.048C69.2932 70.048 69.7505 69.922 70.1145 69.67C70.4878 69.4087 70.7492 69.0633 70.8985 68.634H72.2705C72.0652 69.3713 71.6545 69.9733 71.0385 70.44C70.4225 70.8973 69.6572 71.126 68.7425 71.126C68.0145 71.126 67.3612 70.9627 66.7825 70.636C66.2132 70.3093 65.7652 69.8473 65.4385 69.25C65.1118 68.6433 64.9485 67.9433 64.9485 67.15C64.9485 66.3567 65.1072 65.6613 65.4245 65.064C65.7418 64.4667 66.1852 64.0093 66.7545 63.692C67.3332 63.3653 67.9958 63.202 68.7425 63.202C69.4705 63.202 70.1145 63.3607 70.6745 63.678C71.2345 63.9953 71.6638 64.434 71.9625 64.994C72.2705 65.5447 72.4245 66.17 72.4245 66.87ZM71.1085 66.604C71.1085 66.1187 71.0012 65.7033 70.7865 65.358C70.5718 65.0033 70.2778 64.7373 69.9045 64.56C69.5405 64.3733 69.1345 64.28 68.6865 64.28C68.0425 64.28 67.4918 64.4853 67.0345 64.896C66.5865 65.3067 66.3298 65.876 66.2645 66.604H71.1085ZM85.0066 68.83H80.7506L79.9666 71H78.6226L82.1506 61.298H83.6206L87.1346 71H85.7906L85.0066 68.83ZM84.6426 67.794L82.8786 62.866L81.1146 67.794H84.6426ZM88.8961 67.136C88.8961 66.352 89.0548 65.666 89.3721 65.078C89.6895 64.4807 90.1235 64.0187 90.6741 63.692C91.2341 63.3653 91.8595 63.202 92.5501 63.202C93.1475 63.202 93.7028 63.342 94.2161 63.622C94.7295 63.8927 95.1215 64.252 95.3921 64.7V60.64H96.6801V71H95.3921V69.558C95.1401 70.0153 94.7668 70.3933 94.2721 70.692C93.7775 70.9813 93.1988 71.126 92.5361 71.126C91.8548 71.126 91.2341 70.958 90.6741 70.622C90.1235 70.286 89.6895 69.8147 89.3721 69.208C89.0548 68.6013 88.8961 67.9107 88.8961 67.136ZM95.3921 67.15C95.3921 66.5713 95.2755 66.0673 95.0421 65.638C94.8088 65.2087 94.4915 64.882 94.0901 64.658C93.6981 64.4247 93.2641 64.308 92.7881 64.308C92.3121 64.308 91.8781 64.42 91.4861 64.644C91.0941 64.868 90.7815 65.1947 90.5481 65.624C90.3148 66.0533 90.1981 66.5573 90.1981 67.136C90.1981 67.724 90.3148 68.2373 90.5481 68.676C90.7815 69.1053 91.0941 69.4367 91.4861 69.67C91.8781 69.894 92.3121 70.006 92.7881 70.006C93.2641 70.006 93.6981 69.894 94.0901 69.67C94.4915 69.4367 94.8088 69.1053 95.0421 68.676C95.2755 68.2373 95.3921 67.7287 95.3921 67.15ZM102.879 71.126C102.16 71.126 101.507 70.9627 100.919 70.636C100.34 70.3093 99.8831 69.8473 99.5471 69.25C99.2204 68.6433 99.0571 67.9433 99.0571 67.15C99.0571 66.366 99.2251 65.6753 99.5611 65.078C99.9064 64.4713 100.373 64.0093 100.961 63.692C101.549 63.3653 102.207 63.202 102.935 63.202C103.663 63.202 104.321 63.3653 104.909 63.692C105.497 64.0093 105.959 64.4667 106.295 65.064C106.64 65.6613 106.813 66.3567 106.813 67.15C106.813 67.9433 106.636 68.6433 106.281 69.25C105.936 69.8473 105.464 70.3093 104.867 70.636C104.27 70.9627 103.607 71.126 102.879 71.126ZM102.879 70.006C103.336 70.006 103.766 69.8987 104.167 69.684C104.568 69.4693 104.89 69.1473 105.133 68.718C105.385 68.2887 105.511 67.766 105.511 67.15C105.511 66.534 105.39 66.0113 105.147 65.582C104.904 65.1527 104.587 64.8353 104.195 64.63C103.803 64.4153 103.378 64.308 102.921 64.308C102.454 64.308 102.025 64.4153 101.633 64.63C101.25 64.8353 100.942 65.1527 100.709 65.582C100.476 66.0113 100.359 66.534 100.359 67.15C100.359 67.7753 100.471 68.3027 100.695 68.732C100.928 69.1613 101.236 69.4833 101.619 69.698C102.002 69.9033 102.422 70.006 102.879 70.006ZM112.45 70.048C113.01 70.048 113.477 69.9173 113.85 69.656C114.223 69.3947 114.48 69.0213 114.62 68.536H115.992C115.805 69.264 115.437 69.8613 114.886 70.328C114.345 70.7853 113.663 71.0467 112.842 71.112V71.812C113.393 71.8027 113.831 71.9193 114.158 72.162C114.485 72.4047 114.648 72.75 114.648 73.198C114.648 73.6367 114.489 73.9867 114.172 74.248C113.855 74.5093 113.444 74.64 112.94 74.64H111.33V73.814H112.688C112.996 73.814 113.22 73.7673 113.36 73.674C113.509 73.5807 113.584 73.422 113.584 73.198C113.584 72.9833 113.509 72.8293 113.36 72.736C113.22 72.6427 112.996 72.596 112.688 72.596H111.988V71.098C111.344 71.0327 110.775 70.832 110.28 70.496C109.785 70.1507 109.398 69.6933 109.118 69.124C108.847 68.5453 108.712 67.8873 108.712 67.15C108.712 66.3567 108.871 65.666 109.188 65.078C109.505 64.4807 109.944 64.0187 110.504 63.692C111.073 63.3653 111.722 63.202 112.45 63.202C113.393 63.202 114.167 63.4307 114.774 63.888C115.39 64.3453 115.796 64.98 115.992 65.792H114.62C114.489 65.3253 114.233 64.9567 113.85 64.686C113.477 64.4153 113.01 64.28 112.45 64.28C111.722 64.28 111.134 64.532 110.686 65.036C110.238 65.5307 110.014 66.2353 110.014 67.15C110.014 68.074 110.238 68.788 110.686 69.292C111.134 69.796 111.722 70.048 112.45 70.048ZM117.916 67.136C117.916 66.352 118.075 65.666 118.392 65.078C118.709 64.4807 119.143 64.0187 119.694 63.692C120.254 63.3653 120.875 63.202 121.556 63.202C122.228 63.202 122.811 63.3467 123.306 63.636C123.801 63.9253 124.169 64.2893 124.412 64.728V63.328H125.7V71H124.412V69.572C124.16 70.02 123.782 70.3933 123.278 70.692C122.783 70.9813 122.205 71.126 121.542 71.126C120.861 71.126 120.245 70.958 119.694 70.622C119.143 70.286 118.709 69.8147 118.392 69.208C118.075 68.6013 117.916 67.9107 117.916 67.136ZM124.412 67.15C124.412 66.5713 124.295 66.0673 124.062 65.638C123.829 65.2087 123.511 64.882 123.11 64.658C122.718 64.4247 122.284 64.308 121.808 64.308C121.332 64.308 120.898 64.42 120.506 64.644C120.114 64.868 119.801 65.1947 119.568 65.624C119.335 66.0533 119.218 66.5573 119.218 67.136C119.218 67.724 119.335 68.2373 119.568 68.676C119.801 69.1053 120.114 69.4367 120.506 69.67C120.898 69.894 121.332 70.006 121.808 70.006C122.284 70.006 122.718 69.894 123.11 69.67C123.511 69.4367 123.829 69.1053 124.062 68.676C124.295 68.2373 124.412 67.7287 124.412 67.15ZM120.002 62.502C120.067 62.026 120.221 61.662 120.464 61.41C120.716 61.158 121.029 61.032 121.402 61.032C121.579 61.032 121.729 61.0647 121.85 61.13C121.981 61.186 122.135 61.27 122.312 61.382C122.443 61.4753 122.559 61.55 122.662 61.606C122.765 61.6527 122.877 61.676 122.998 61.676C123.157 61.676 123.292 61.6247 123.404 61.522C123.516 61.4193 123.586 61.27 123.614 61.074H124.342C124.286 61.5407 124.132 61.9 123.88 62.152C123.628 62.404 123.315 62.53 122.942 62.53C122.765 62.53 122.606 62.502 122.466 62.446C122.335 62.3807 122.186 62.2873 122.018 62.166C121.869 62.0727 121.747 62.0027 121.654 61.956C121.57 61.9093 121.467 61.886 121.346 61.886C121.187 61.886 121.052 61.9373 120.94 62.04C120.837 62.1427 120.772 62.2967 120.744 62.502H120.002ZM131.899 71.126C131.18 71.126 130.527 70.9627 129.939 70.636C129.36 70.3093 128.903 69.8473 128.567 69.25C128.24 68.6433 128.077 67.9433 128.077 67.15C128.077 66.366 128.245 65.6753 128.581 65.078C128.926 64.4713 129.393 64.0093 129.981 63.692C130.569 63.3653 131.227 63.202 131.955 63.202C132.683 63.202 133.341 63.3653 133.929 63.692C134.517 64.0093 134.979 64.4667 135.315 65.064C135.66 65.6613 135.833 66.3567 135.833 67.15C135.833 67.9433 135.656 68.6433 135.301 69.25C134.956 69.8473 134.484 70.3093 133.887 70.636C133.29 70.9627 132.627 71.126 131.899 71.126ZM131.899 70.006C132.356 70.006 132.786 69.8987 133.187 69.684C133.588 69.4693 133.91 69.1473 134.153 68.718C134.405 68.2887 134.531 67.766 134.531 67.15C134.531 66.534 134.41 66.0113 134.167 65.582C133.924 65.1527 133.607 64.8353 133.215 64.63C132.823 64.4153 132.398 64.308 131.941 64.308C131.474 64.308 131.045 64.4153 130.653 64.63C130.27 64.8353 129.962 65.1527 129.729 65.582C129.496 66.0113 129.379 66.534 129.379 67.15C129.379 67.7753 129.491 68.3027 129.715 68.732C129.948 69.1613 130.256 69.4833 130.639 69.698C131.022 69.9033 131.442 70.006 131.899 70.006ZM142.165 67.136C142.165 66.352 142.323 65.666 142.641 65.078C142.958 64.4807 143.392 64.0187 143.943 63.692C144.503 63.3653 145.128 63.202 145.819 63.202C146.416 63.202 146.971 63.342 147.485 63.622C147.998 63.8927 148.39 64.252 148.661 64.7V60.64H149.949V71H148.661V69.558C148.409 70.0153 148.035 70.3933 147.541 70.692C147.046 70.9813 146.467 71.126 145.805 71.126C145.123 71.126 144.503 70.958 143.943 70.622C143.392 70.286 142.958 69.8147 142.641 69.208C142.323 68.6013 142.165 67.9107 142.165 67.136ZM148.661 67.15C148.661 66.5713 148.544 66.0673 148.311 65.638C148.077 65.2087 147.76 64.882 147.359 64.658C146.967 64.4247 146.533 64.308 146.057 64.308C145.581 64.308 145.147 64.42 144.755 64.644C144.363 64.868 144.05 65.1947 143.817 65.624C143.583 66.0533 143.467 66.5573 143.467 67.136C143.467 67.724 143.583 68.2373 143.817 68.676C144.05 69.1053 144.363 69.4367 144.755 69.67C145.147 69.894 145.581 70.006 146.057 70.006C146.533 70.006 146.967 69.894 147.359 69.67C147.76 69.4367 148.077 69.1053 148.311 68.676C148.544 68.2373 148.661 67.7287 148.661 67.15ZM159.801 66.87C159.801 67.1127 159.787 67.3693 159.759 67.64H153.627C153.674 68.396 153.931 68.9887 154.397 69.418C154.873 69.838 155.447 70.048 156.119 70.048C156.67 70.048 157.127 69.922 157.491 69.67C157.865 69.4087 158.126 69.0633 158.275 68.634H159.647C159.442 69.3713 159.031 69.9733 158.415 70.44C157.799 70.8973 157.034 71.126 156.119 71.126C155.391 71.126 154.738 70.9627 154.159 70.636C153.59 70.3093 153.142 69.8473 152.815 69.25C152.489 68.6433 152.325 67.9433 152.325 67.15C152.325 66.3567 152.484 65.6613 152.801 65.064C153.119 64.4667 153.562 64.0093 154.131 63.692C154.71 63.3653 155.373 63.202 156.119 63.202C156.847 63.202 157.491 63.3607 158.051 63.678C158.611 63.9953 159.041 64.434 159.339 64.994C159.647 65.5447 159.801 66.17 159.801 66.87ZM158.485 66.604C158.485 66.1187 158.378 65.7033 158.163 65.358C157.949 65.0033 157.655 64.7373 157.281 64.56C156.917 64.3733 156.511 64.28 156.063 64.28C155.419 64.28 154.869 64.4853 154.411 64.896C153.963 65.3067 153.707 65.876 153.641 66.604H158.485ZM173.14 64.098C173.14 64.91 172.86 65.5867 172.3 66.128C171.749 66.66 170.904 66.926 169.766 66.926H167.89V71H166.616V61.242H169.766C170.867 61.242 171.702 61.508 172.272 62.04C172.85 62.572 173.14 63.258 173.14 64.098ZM169.766 65.876C170.475 65.876 170.998 65.722 171.334 65.414C171.67 65.106 171.838 64.6673 171.838 64.098C171.838 62.894 171.147 62.292 169.766 62.292H167.89V65.876H169.766ZM182.423 66.87C182.423 67.1127 182.409 67.3693 182.381 67.64H176.249C176.296 68.396 176.552 68.9887 177.019 69.418C177.495 69.838 178.069 70.048 178.741 70.048C179.292 70.048 179.749 69.922 180.113 69.67C180.486 69.4087 180.748 69.0633 180.897 68.634H182.269C182.064 69.3713 181.653 69.9733 181.037 70.44C180.421 70.8973 179.656 71.126 178.741 71.126C178.013 71.126 177.36 70.9627 176.781 70.636C176.212 70.3093 175.764 69.8473 175.437 69.25C175.11 68.6433 174.947 67.9433 174.947 67.15C174.947 66.3567 175.106 65.6613 175.423 65.064C175.74 64.4667 176.184 64.0093 176.753 63.692C177.332 63.3653 177.994 63.202 178.741 63.202C179.469 63.202 180.113 63.3607 180.673 63.678C181.233 63.9953 181.662 64.434 181.961 64.994C182.269 65.5447 182.423 66.17 182.423 66.87ZM181.107 66.604C181.107 66.1187 181 65.7033 180.785 65.358C180.57 65.0033 180.276 64.7373 179.903 64.56C179.539 64.3733 179.133 64.28 178.685 64.28C178.041 64.28 177.49 64.4853 177.033 64.896C176.585 65.3067 176.328 65.876 176.263 66.604H181.107ZM186.359 64.378V68.9C186.359 69.2733 186.438 69.5393 186.597 69.698C186.755 69.8473 187.031 69.922 187.423 69.922H188.361V71H187.213C186.503 71 185.971 70.8367 185.617 70.51C185.262 70.1833 185.085 69.6467 185.085 68.9V64.378H184.091V63.328H185.085V61.396H186.359V63.328H188.361V64.378H186.359ZM193.32 71.126C192.732 71.126 192.205 71.028 191.738 70.832C191.272 70.6267 190.903 70.3467 190.632 69.992C190.362 69.628 190.212 69.2127 190.184 68.746H191.5C191.538 69.1287 191.715 69.4413 192.032 69.684C192.359 69.9267 192.784 70.048 193.306 70.048C193.792 70.048 194.174 69.9407 194.454 69.726C194.734 69.5113 194.874 69.2407 194.874 68.914C194.874 68.578 194.725 68.3307 194.426 68.172C194.128 68.004 193.666 67.8407 193.04 67.682C192.471 67.5327 192.004 67.3833 191.64 67.234C191.286 67.0753 190.978 66.8467 190.716 66.548C190.464 66.24 190.338 65.8387 190.338 65.344C190.338 64.952 190.455 64.5927 190.688 64.266C190.922 63.9393 191.253 63.6827 191.682 63.496C192.112 63.3 192.602 63.202 193.152 63.202C194.002 63.202 194.688 63.4167 195.21 63.846C195.733 64.2753 196.013 64.8633 196.05 65.61H194.776C194.748 65.2087 194.585 64.8867 194.286 64.644C193.997 64.4013 193.605 64.28 193.11 64.28C192.653 64.28 192.289 64.378 192.018 64.574C191.748 64.77 191.612 65.0267 191.612 65.344C191.612 65.596 191.692 65.806 191.85 65.974C192.018 66.1327 192.224 66.2633 192.466 66.366C192.718 66.4593 193.064 66.5667 193.502 66.688C194.053 66.8373 194.501 66.9867 194.846 67.136C195.192 67.276 195.486 67.4907 195.728 67.78C195.98 68.0693 196.111 68.4473 196.12 68.914C196.12 69.334 196.004 69.712 195.77 70.048C195.537 70.384 195.206 70.65 194.776 70.846C194.356 71.0327 193.871 71.126 193.32 71.126Z" fill="#F0F7F4"/>
<path d="M27.4741 35.9279H9.15803L5.78402 45.4473H0L15.183 2.88651H21.5093L36.6321 45.4473H30.8481L27.4741 35.9279ZM25.9076 31.3832L18.3161 9.76502L10.7245 31.3832H25.9076Z" fill="white"/>
<path d="M38.1883 28.4967C38.1883 25.0574 38.8711 22.0481 40.2368 19.4686C41.6024 16.8482 43.4702 14.8215 45.84 13.3885C48.25 11.9555 50.9412 11.239 53.9136 11.239C56.4842 11.239 58.8742 11.8531 61.0833 13.0814C63.2925 14.2688 64.9795 15.8451 66.1443 17.8104V0H71.6874V45.4473H66.1443V39.1215C65.0598 41.1277 63.4532 42.7859 61.3243 44.0961C59.1955 45.3654 56.7052 46 53.8533 46C50.9211 46 48.25 45.263 45.84 43.7891C43.4702 42.3151 41.6024 40.2474 40.2368 37.5861C38.8711 34.9248 38.1883 31.895 38.1883 28.4967ZM66.1443 28.5581C66.1443 26.0196 65.6423 23.8086 64.6381 21.9252C63.6339 20.0418 62.2682 18.6088 60.5411 17.6262C58.8541 16.6026 56.9863 16.0908 54.9378 16.0908C52.8893 16.0908 51.0215 16.5821 49.3345 17.5648C47.6475 18.5474 46.3019 19.9804 45.2978 21.8638C44.2936 23.7472 43.7915 25.9582 43.7915 28.4967C43.7915 31.0761 44.2936 33.328 45.2978 35.2523C46.3019 37.1357 47.6475 38.5892 49.3345 39.6128C51.0215 40.5955 52.8893 41.0868 54.9378 41.0868C56.9863 41.0868 58.8541 40.5955 60.5411 39.6128C62.2682 38.5892 63.6339 37.1357 64.6381 35.2523C65.6423 33.328 66.1443 31.0966 66.1443 28.5581Z" fill="white"/>
<path d="M92.34 46C89.2472 46 86.4355 45.2835 83.905 43.8505C81.4146 42.4174 79.4464 40.3907 78.0005 37.7704C76.5946 35.109 75.8917 32.0383 75.8917 28.5581C75.8917 25.1188 76.6147 22.089 78.0607 19.4686C79.5469 16.8073 81.5552 14.7806 84.0857 13.3885C86.6162 11.9555 89.448 11.239 92.581 11.239C95.714 11.239 98.5458 11.9555 101.076 13.3885C103.607 14.7806 105.595 16.7868 107.041 19.4072C108.527 22.0276 109.27 25.0779 109.27 28.5581C109.27 32.0383 108.507 35.109 106.981 37.7704C105.495 40.3907 103.466 42.4174 100.896 43.8505C98.3248 45.2835 95.473 46 92.34 46ZM92.34 41.0868C94.3082 41.0868 96.1558 40.6159 97.883 39.6742C99.6102 38.7325 100.996 37.32 102.04 35.4366C103.125 33.5532 103.667 31.2603 103.667 28.5581C103.667 25.8558 103.145 23.563 102.101 21.6796C101.056 19.7962 99.6905 18.4041 98.0035 17.5033C96.3165 16.5616 94.4889 16.0908 92.5207 16.0908C90.5124 16.0908 88.6647 16.5616 86.9777 17.5033C85.3309 18.4041 84.0054 19.7962 83.0012 21.6796C81.997 23.563 81.495 25.8558 81.495 28.5581C81.495 31.3013 81.977 33.6146 82.941 35.498C83.9451 37.3814 85.2706 38.7939 86.9175 39.7356C88.5643 40.6364 90.3718 41.0868 92.34 41.0868Z" fill="white"/>
<path d="M144.797 16.2136C144.797 18.7112 144.234 21.004 143.11 23.0921C141.985 25.1393 140.258 26.7975 137.928 28.0668C135.599 29.336 132.707 29.9706 129.252 29.9706H122.866V45.4473H112.563V2.33378H129.252C132.626 2.33378 135.478 2.92746 137.808 4.11482C140.137 5.30218 141.885 6.93992 143.049 9.02804C144.214 11.1162 144.797 13.5113 144.797 16.2136ZM128.469 21.6182C130.437 21.6182 131.903 21.1473 132.867 20.2056C133.831 19.2639 134.313 17.9332 134.313 16.2136C134.313 14.494 133.831 13.1633 132.867 12.2216C131.903 11.2799 130.437 10.8091 128.469 10.8091H122.866V21.6182H128.469Z" fill="white"/>
<path d="M178.839 27.7597C178.839 28.7423 178.779 29.7659 178.659 30.8304H155.342C155.503 32.9595 156.165 34.5972 157.33 35.7437C158.535 36.8491 160.001 37.4019 161.728 37.4019C164.299 37.4019 166.087 36.2964 167.091 34.0854H178.056C177.494 36.3373 176.47 38.364 174.983 40.1656C173.537 41.9671 171.71 43.3796 169.501 44.4032C167.292 45.4268 164.821 45.9386 162.09 45.9386C158.796 45.9386 155.864 45.2221 153.293 43.7891C150.723 42.356 148.714 40.3089 147.268 37.6475C145.822 34.9862 145.099 31.8745 145.099 28.3124C145.099 24.7503 145.802 21.6386 147.208 18.9773C148.654 16.316 150.662 14.2688 153.233 12.8358C155.804 11.4028 158.756 10.6862 162.09 10.6862C165.343 10.6862 168.235 11.3823 170.766 12.7744C173.296 14.1664 175.265 16.1522 176.67 18.7316C178.116 21.3111 178.839 24.3204 178.839 27.7597ZM168.296 24.996C168.296 23.1945 167.693 21.7615 166.488 20.6969C165.283 19.6324 163.777 19.1001 161.969 19.1001C160.242 19.1001 158.776 19.6119 157.571 20.6355C156.406 21.6591 155.683 23.1126 155.402 24.996H168.296Z" fill="white"/>
<path d="M200 36.5421V45.4473H194.758C191.023 45.4473 188.111 44.526 186.022 42.6836C183.933 40.8002 182.889 37.7499 182.889 33.5327V19.8985H178.792V11.1776H182.889V2.8251H193.192V11.1776H199.94V19.8985H193.192V33.6555C193.192 34.6791 193.433 35.4161 193.915 35.8665C194.397 36.3169 195.2 36.5421 196.325 36.5421H200Z" fill="white"/>
</svg>
